<?xml version="1.0" encoding="UTF-8" standalone="no"?>
<svg
   xmlns:dc="http://purl.org/dc/elements/1.1/"
   xmlns:cc="http://creativecommons.org/ns#"
   xmlns:rdf="http://www.w3.org/1999/02/22-rdf-syntax-ns#"
   xmlns:svg="http://www.w3.org/2000/svg"
   xmlns="http://www.w3.org/2000/svg"
   height="16"
   viewBox="0 0 16 16"
   width="16"
   version="1.1"
   id="svg41">
  <metadata
     id="metadata47">
    <rdf:RDF>
      <cc:Work
         rdf:about="">
        <dc:format>image/svg+xml</dc:format>
        <dc:type
           rdf:resource="http://purl.org/dc/dcmitype/StillImage" />
        <dc:title></dc:title>
      </cc:Work>
    </rdf:RDF>
  </metadata>
  <defs
     id="defs45">
    <clipPath
       clipPathUnits="userSpaceOnUse"
       id="clipPath85">
      <g
         id="use87">
        <path
           id="path184"
           d="m 1,5 v 8 c 0,1.1046 0.89543,2 2,2 h 10 c 1.1046,0 2,-0.8954 2,-2 V 5 Z M 3.140625,5.9550781 7.6855469,8.1992188 V 8.9355469 L 3.140625,11.107422 V 9.8789062 L 6.0996094,8.5566406 3.140625,7.1933594 Z M 8.03125,13.111328 h 4.828125 v 0.933594 H 8.03125 Z" />
      </g>
    </clipPath>
  </defs>
  <g
     id="layer5"
     style="display:inline">
    <path
       id="path39"
       style="display:inline;fill:#a5efac;fill-opacity:1"
       d="m 3,1.0112264 c -1.1046,0 -2,0.8954 -2,2 v 1 h 14 v -1 c 0,-1.1046 -0.89543,-2 -2,-2 z m 9,1 h 1 v 1 h -1 z" />
  </g>
  <g
     id="layer1"
     style="display:inline">
    <path
       id="path253"
       style="display:inline;fill:#a5efac;fill-opacity:1"
       d="M 1.0214844 5.0214844 L 1.0214844 9.1328125 C 1.0214844 13.745263 1.0080744 13.425604 1.2246094 13.875 C 1.4955544 14.437324 2.0010355 14.830427 2.6171875 14.957031 C 2.7606975 14.986521 3.761797 14.991881 8.078125 14.988281 L 13.363281 14.984375 L 13.552734 14.919922 C 14.250465 14.685817 14.704852 14.217363 14.921875 13.509766 L 14.984375 13.308594 L 14.992188 9.1640625 L 15 5.0214844 L 8.0097656 5.0214844 L 1.0214844 5.0214844 z M 8.1347656 5.7011719 C 8.3292144 5.7107246 8.5252046 5.738851 8.6894531 5.78125 C 9.3760011 5.9584732 10.043148 6.4610381 10.511719 7.15625 L 10.619141 7.3144531 L 10.546875 7.4199219 C 10.443489 7.5687051 10.182231 7.8353367 10.019531 7.9609375 C 9.4832536 8.3749317 8.8509615 8.5960595 8.1171875 8.6230469 C 8.0019005 8.6273069 7.8633879 8.6267169 7.8105469 8.6230469 C 7.0227869 8.5684192 6.3198181 8.2750048 5.7988281 7.78125 C 5.6514181 7.6415458 5.4179688 7.3553854 5.4179688 7.3144531 C 5.4179688 7.2849721 5.619306 6.9993203 5.75 6.84375 C 6.270604 6.2240611 6.8923109 5.8470562 7.5917969 5.7265625 C 7.7468634 5.6998505 7.9403169 5.6916191 8.1347656 5.7011719 z M 12.271484 6.8691406 C 12.473203 6.903266 12.633874 7.1189043 12.552734 7.3378906 C 12.526784 7.4079216 12.421457 7.5227832 11.863281 8.0839844 L 11.203125 8.7480469 L 11.242188 8.9511719 C 11.264147 9.0624393 11.291534 9.2358454 11.302734 9.3359375 C 11.313944 9.4360295 11.326961 9.5509667 11.332031 9.5917969 L 11.341797 9.6660156 L 12.193359 9.6660156 L 13.044922 9.6660156 L 13.123047 9.7070312 C 13.335227 9.8190491 13.375399 10.106463 13.203125 10.273438 C 13.092319 10.38084 13.07994 10.380859 12.167969 10.380859 L 11.341797 10.380859 L 11.332031 10.455078 C 11.327031 10.495898 11.31821 10.577123 11.3125 10.634766 C 11.27958 10.966797 11.183457 11.411842 11.068359 11.755859 L 11.005859 11.941406 L 11.771484 12.712891 C 12.56432 13.509215 12.580472 13.525314 12.580078 13.658203 C 12.579879 13.728743 12.540021 13.825837 12.488281 13.884766 C 12.381189 14.00674 12.219606 14.04788 12.076172 13.988281 C 12.032182 13.970031 11.795148 13.745585 11.34375 13.294922 C 10.97659 12.92836 10.673314 12.632399 10.669922 12.636719 C 10.666522 12.641019 10.629461 12.698369 10.587891 12.765625 C 10.326577 13.188361 9.9065818 13.629217 9.5273438 13.876953 C 9.334705 14.002794 9.0731489 14.130306 8.8730469 14.197266 C 8.7052539 14.253406 8.4709324 14.3125 8.4121094 14.3125 C 8.3904594 14.3125 8.3867187 13.975936 8.3867188 11.841797 L 8.3867188 9.3710938 L 8.4355469 9.3632812 C 8.4619669 9.3582913 8.5302486 9.3479679 8.5878906 9.3417969 C 8.7730096 9.3219799 9.1063389 9.245398 9.3417969 9.1679688 C 10.129539 8.9089243 10.806388 8.4041472 11.220703 7.7695312 C 11.295863 7.6544114 11.412711 7.5225086 11.658203 7.2753906 C 11.842589 7.0897829 12.026119 6.9222627 12.064453 6.9023438 C 12.133278 6.8665817 12.204245 6.8577655 12.271484 6.8691406 z M 3.8925781 6.8730469 C 3.9697281 6.8920259 4.0082672 6.9247194 4.3320312 7.2441406 C 4.5677733 7.4767173 4.7152221 7.6377406 4.7675781 7.71875 C 5.2017411 8.3905071 5.8697263 8.8973446 6.6757812 9.1660156 C 6.9148733 9.2457076 7.2454309 9.3214454 7.4355469 9.3417969 C 7.4931869 9.3479969 7.5614716 9.3583163 7.5878906 9.3632812 L 7.6367188 9.3710938 L 7.6367188 11.841797 L 7.6367188 14.3125 L 7.5976562 14.310547 C 7.5760362 14.310118 7.4709144 14.287076 7.3652344 14.259766 C 6.6156844 14.066088 5.9598533 13.5672 5.4726562 12.818359 C 5.4101463 12.722289 5.3570256 12.6411 5.3535156 12.636719 C 5.3500156 12.632319 5.0467875 12.92821 4.6796875 13.294922 C 4.2261195 13.748013 3.9913976 13.970055 3.9472656 13.988281 C 3.6431306 14.113885 3.3466625 13.795772 3.4921875 13.5 C 3.5063675 13.47118 3.8544321 13.109427 4.2675781 12.695312 L 5.0195312 11.941406 L 4.9492188 11.724609 C 4.8279987 11.349875 4.7371365 10.915523 4.7109375 10.591797 C 4.7050375 10.519737 4.6958562 10.443492 4.6914062 10.421875 L 4.6835938 10.380859 L 3.8613281 10.380859 C 3.2607521 10.380859 3.0173108 10.375055 2.9648438 10.359375 C 2.8240738 10.317305 2.7112185 10.160006 2.7109375 10.005859 C 2.7107815 9.9205194 2.7900778 9.7807659 2.8710938 9.7246094 L 2.9433594 9.6738281 L 3.8085938 9.6699219 C 4.4670727 9.6662619 4.677179 9.6588201 4.6875 9.6425781 C 4.695 9.6308371 4.7009719 9.5862037 4.7011719 9.5429688 C 4.7016169 9.4462117 4.7627981 9.0205914 4.7988281 8.8652344 L 4.8261719 8.7519531 L 4.171875 8.0957031 C 3.812172 7.7345788 3.5037671 7.4105791 3.4863281 7.3769531 C 3.4461481 7.2994861 3.4438619 7.1428808 3.4824219 7.0703125 C 3.5638419 6.9171085 3.7365791 6.8346816 3.8925781 6.8730469 z " />
  </g>
</svg>
